<svg width="500" height="172" xmlns="http://www.w3.org/2000/svg" xmlns:xlink="http://www.w3.org/1999/xlink" viewbox="0 0 500 172"><defs><path id="a" d="M.147.247H6.47v15.526H.147z"/><path id="c" d="M.158.1h27.708v22.452H.158z"/><path id="e" d="M0 .17h499.971v148.496H0z"/></defs><g fill="none" fill-rule="evenodd"><path d="M349.524 116.723c.896-.94 1.913-1.818 3.113-2.345.65-.286 1.664-.224 1.88-.75-5.299-.243-9.235 6.853-11.81 10.545-3.17 4.583-6.227 9.27-9.947 13.442-7.177 8.048-16.485 12.632-27.417 11.42-.258.734 6.47.928 7.324.89 2.983-.134 5.96-.823 8.721-1.955 4.88-2.014 9.032-5.467 12.498-9.396 4.067-4.61 7.264-9.841 10.582-14.99 1.532-2.374 3.103-4.806 5.056-6.86M257.36 151.744c-1.417-1.803-2.586-3.805-3.674-5.821-1.648-3.057-3.35-6.296-4.411-9.616-.874 1.956-2.293 6.36-3.674 9.447-1.404 3.135-3.439 8.132-6.987 9.404 2.39 1.618 5.262 2.215 7.568.156 1.646-1.47 2.548-3.534 3.5-5.475.655 1.939 1.561 3.97 3.15 5.325 2.468 2.104 5.576 1.071 7.964-.624-1.437-.275-2.587-1.717-3.435-2.796M267.162 122.764c.498-.11.75-.203 1.12-.281-1.442-4.381-1.194-8.938 2.033-11.833 3.557-3.191 10.84-3.53 11.788 2.377.362 2.26-1.168 4.673-3.687 4.38-1.05-.139-1.987-1.261-1.678-2.343.26-.894 1.41-.464 1.102-1.532-2.698-.045-2.102 4.143-.164 4.958 3.106 1.304 6.025-1.18 5.963-4.286-.022-1.116-1.085-2.41-1.495-3.216 1.041.161 2.398-.219 3.036-.624 1.699-1.081 2.265-3.39 1.766-5.236-.473-1.75-2.673-3.41-4.315-1.872-.825.774-1.133 3.18.612 2.611.455-.148.26-.868-.199-.718l-.409-.3c.02-.692.395-1.148 1.124-1.37.825-.324 1.653.337 2.044.974.589.959.707 1.963.464 3.052-.197.883-.755 1.669-1.463 2.215-.51.394-2.842.694-3.832-.286-2.415-2.218-6.712-2.293-9.756-.49-1.89 1.12-3.26 2.629-4.068 4.47.28-2.192-1.46-3.93-.9-6.043.107-.41-.612-.5-.731-.096-.127.417-.59 1.077-.574 1.525-.302 3.008-1.667 2.914-1.802 4.845-.17 2.55 2.136 4.251 3.336 6.197.141.934.361 1.906.685 2.922" fill="#FFF"/><g transform="translate(246.057 155.515)"><mask id="b" fill="#fff"><use xlink:href="#a"/></mask><path d="M.147 8.01c0 2.81 1.325 5.667 3.161 7.763 1.836-2.096 3.163-4.952 3.163-7.763S5.145 2.342 3.308.247C1.472 2.342.147 5.2.147 8.01" fill="#FFF" mask="url(#b)"/></g><path d="M440.965 54.47c-.56 1.36-1.17 2.699-1.84 4.01-1.215 2.387-2.626 4.68-4.264 6.803-3.257 4.215-7.45 7.666-12.24 10.002-10.216 4.984-22.716 5.037-33.595 2.45-.301.565 6.578 1.999 7.473 2.145 2.831.46 5.7.684 8.566.706 5.503-.002 11.048-.916 16.14-3.05 9.962-4.132 16.86-12.802 20.149-22.924.57-1.754.306-1.834-.389-.143M354.388 124.883c.14.87.29 1.73.545 2.525.14.433.31.831.521 1.196.275-2.231 1.378-4.058.73-6.4-.544-1.952-2.34-3.443-3.585-4.942-.201-.245-.656-.045-.633.262.156 2.504-1.692 4.695-1.17 7.192.171.82.454 1.64 1.02 2.281.67.766 1.53 1.198 2.31 1.784a7.341 7.341 0 0 1-.28-1.11c-.158-.928-.183-1.834-.2-2.724-.016-.89-.015-1.767-.11-2.633-.073-.863-.387-1.702-.638-2.551.366.803.798 1.592 1.005 2.483.223.874.346 1.766.485 2.637M276.006 138.736c-.162.622-.314 1.242-.376 1.848-.033.33-.037.647-.002.953.838-1.412 2.112-2.309 2.363-4.066.209-1.465-.555-2.988-.948-4.355-.062-.223-.425-.222-.5-.01-.63 1.72-2.507 2.644-2.891 4.466-.125.598-.176 1.23.014 1.824.224.709.673 1.25 1.022 1.87.028-.284.071-.565.139-.824.165-.667.414-1.28.663-1.879.25-.6.51-1.187.7-1.794.203-.599.24-1.252.32-1.893.009.644.067 1.298-.054 1.954-.109.65-.289 1.283-.45 1.906M285.457 111.231c-.596-.045-1.135.128-1.704.202.205.107.401.223.575.352.449.322.832.694 1.205 1.06.373.367.733.737 1.13 1.06.385.334.862.556 1.318.809-.484-.187-.99-.339-1.444-.627-.454-.277-.873-.6-1.29-.91-.415-.306-.832-.606-1.268-.835a3.607 3.607 0 0 0-.71-.288c.803 1.05 1.09 2.272 2.327 2.987 1.032.597 2.4.484 3.54.602.185.02.293-.252.158-.371-1.096-.989-1.222-2.668-2.47-3.503-.409-.273-.865-.501-1.367-.538M326.672 77.344c.685.69 1.538.667 2.367 1.014a2.546 2.546 0 0 0-.311-.419 6.99 6.99 0 0 0-.77-.688c-.275-.221-.562-.441-.822-.692-.267-.247-.456-.554-.662-.84.245.257.475.53.76.727.281.205.588.377.894.558.305.183.614.37.906.609.114.092.224.202.33.318-.05-.387-.029-.771-.162-1.155-.112-.325-.34-.584-.591-.807-.764-.675-1.892-.468-2.73-1.017-.103-.068-.263.05-.218.169.277.727.438 1.648 1.01 2.223M339.324 109.112c-.448-.673-1.007-1.258-.564-.691-3.43-3.461-10.978.222-7.628 4.898 1.081 1.565 4.028 1.743 4.735-.302.282-.818.022-1.822-.735-2.29-.927-.53-2.652.435-1.726 1.503-.564-.8.36-1.61 1.163-1.445.971.199 1.272 1.437.86 2.227-1.171 2.246-4.017.563-4.398-1.29-.995-4.748 5.889-5.48 8.293-2.61M337.308 100.105c.072-.56.045-1.128.018-.594-.194-3.364-5.801-4.883-6.178-.93-.148 1.303 1.303 2.729 2.596 1.986.516-.296.836-.935.654-1.521-.24-.696-1.573-.975-1.576-.001.068-.67.915-.673 1.258-.225.415.544.01 1.323-.563 1.546-1.625.638-2.34-1.526-1.7-2.661 1.633-2.916 5.54-.18 5.49 2.4M358.13 98.539c-.164.186-.134.566.164.618 2.027.35 4.16.112 4.696-2.19.506-2.178-.603-4.653-2.728-5.42-.067-.03-.134-.022-.194-.015-.276.015-.522.38-.261.634 1.089 1.073.873 2.87.328 4.144-.38.895-1.378 1.514-2.005 2.229M380.166 101.471c1.185-.437.884-2.336.87-3.417-.008-.298-.425-.529-.634-.26-.708.879-1.938.722-2.848 1.296-1.036.664-1.313 3.288-1.053 4.369.932-1.554 2.504-1.56 3.665-1.988" fill="#FFF"/><path d="M440.091 79.115c-.786.639-1.855.312-2.75.151a12.053 12.053 0 0 0-2.82-.19c-.898.058-1.73.216-2.54.603-.495.233-.9.632-1.293 1.026.202-.702.41-1.44.738-2.02.097-.169-.014-.39-.226-.356-1.146.186-2.143.553-3.023 1.258-.121.098-.242.2-.36.313-1.066 1.007-1.68 2.414-2.87 3.245.873-1.657 1.016-3.488-.465-4.955-.13-.125-.316-.1-.395.068-1.243 2.776-4.715 4.561-7.548 5.354-1.35.376-2.71.304-4.09.26-1.04-.03-2.144-.068-3.152-.37.655.283 1.313.568 1.971.848a14.31 14.31 0 0 0 3.46.525c1.426.04 2.866-.104 4.259-.458 1.388-.359 2.744-.927 3.89-1.825-1.094.96-2.433 1.615-3.824 2.057a15.815 15.815 0 0 1-4.867.712c2.331.465 4.74.602 7.133.519 2.482-.097 4.972-.405 7.37-1.08 1.502-.42 2.921-1.079 4.298-1.826a69.898 69.898 0 0 0 2.43-1.403c-.773.496-1.552.992-2.348 1.46-1.367.803-2.786 1.52-4.31 2.002-2.402.758-4.906 1.15-7.416 1.33-1.568.104-3.149.12-4.725.007.213.066.423.135.635.198 1.726.51 3.498.875 5.294 1.057 1.798.184 3.613.212 5.423.327-1.812-.034-3.627.019-5.442-.085a29.43 29.43 0 0 1-5.4-.832 43.866 43.866 0 0 1-3.61-1.067c-1.16-.224-2.31-.533-3.417-.99-.078-.032-.154-.067-.231-.1-4.258-2.225-9.21-3.015-13.79-1.532 1.932-.095 3.868-.09 5.778.259 2.882.527 5.633 1.916 7.987 3.633a23.69 23.69 0 0 1 4.911 4.845c.317.416.622.838.91 1.272 1.731 2.61 2.74 5.571 3.557 8.57-.861-2.866-1.893-5.709-3.59-8.197a25.306 25.306 0 0 0-1.365-1.806 23.503 23.503 0 0 0-4.445-4.153c-2.31-1.637-4.995-2.954-7.796-3.457-1-.175-2.009-.247-3.02-.258 2.566.594 5.017 1.804 7.08 3.354a21.831 21.831 0 0 1 3.08 2.828c.733.809 1.41 1.667 2.025 2.57.749 1.098 1.525 2.291 1.946 3.568.527 1.604.33 2.63.237 3.986a10.662 10.662 0 0 0-.358-3.675c-.357-1.29-1.084-2.42-1.85-3.502a23.449 23.449 0 0 0-2.702-3.18 21.458 21.458 0 0 0-2.42-2.057c-2.511-1.822-5.623-3.168-8.782-3.456.326.12.65.251.97.392a16.427 16.427 0 0 1 5.677 2.632c.69.497 1.343 1.046 1.961 1.631a21.606 21.606 0 0 1 2.574 2.94c.662.907 2.077 2.517 2.622 4.931-.825-2.396-2.1-3.926-2.79-4.802a20.645 20.645 0 0 0-3.301-3.363 18.264 18.264 0 0 0-1.32-.973c-.69-.462-1.408-.86-2.15-1.202.42.272.828.552 1.22.835.426.307.824.638 1.198.99 2.25 2.115 3.524 4.991 3.809 8.117-.454-3.391-2.066-6.464-4.87-8.467-.054-.04-.105-.081-.164-.12-1.345-.925-2.895-1.825-4.53-2.477a16.067 16.067 0 0 0-2.483-.339c1.894.604 3.456 1.325 4.738 2.13 5.291 3.323 5.78 8.135 4.527 12.601 2.412.897 5.154-.236 4.288-3.473 2.4 2.887 1.55 5.836-1.21 8.168 2.834 1.374 8.317-1.927 6.384-7.78 3.297 3.819 3.435 10.997 2.051 14.63 5.301-5.981 5.203-12.67 2.229-18.105-1.233-2.254-2.962-4.29-5.004-5.973 2.246 1.286 4.624 2.32 7.137 2.856 2.401.509 4.813.708 7.255.546 1.941-.134 3.925-.903 5.191-2.296.111-.125.01-.29-.106-.349-.445.008-.96-.122-.824-.625.598.232 1.249.342 1.82.256 1.254-.186 2.093-1.038 2.873-1.977a.03.03 0 0 1 .009-.012c.14-.17-.045-.373-.224-.358-.105.01-.207.007-.305.003-.803-.035-1.428-.499-1.99-1.054.15-.01.29-.027.427-.046 3.31-.448 3.134-2.95 5.43-4.892.22-.187-.058-.538-.29-.35M166.25 137.615c-3.72-4.172-6.775-8.86-9.948-13.442-2.573-3.692-6.51-10.788-11.81-10.546.218.527 1.231.466 1.882.751 1.2.527 2.217 1.405 3.112 2.345 1.954 2.055 3.525 4.487 5.056 6.862 3.318 5.148 6.515 10.38 10.583 14.99 3.466 3.928 7.618 7.381 12.498 9.395 2.76 1.132 5.737 1.82 8.72 1.955.855.038 7.582-.156 7.324-.89-10.931 1.212-20.24-3.372-27.417-11.42M213.83 110.364c.638.405 1.995.785 3.037.624-.41.806-1.473 2.1-1.495 3.216-.062 3.105 2.857 5.59 5.963 4.286 1.938-.815 2.533-5.003-.164-4.958-.309 1.068.841.638 1.102 1.532.309 1.082-.627 2.204-1.679 2.342-2.518.294-4.048-2.12-3.686-4.379.948-5.907 8.231-5.568 11.788-2.377 3.226 2.895 3.475 7.452 2.032 11.833.372.078.623.171 1.121.28.323-1.015.544-1.987.685-2.921 1.2-1.945 3.506-3.648 3.336-6.197-.135-1.93-1.5-1.837-1.802-4.845.015-.448-.447-1.108-.574-1.525-.119-.403-.839-.315-.73.096.558 2.112-1.18 3.85-.902 6.043-.808-1.841-2.178-3.35-4.067-4.47-3.045-1.803-7.341-1.728-9.756.49-.99.98-3.322.68-3.832.286-.708-.546-1.267-1.332-1.464-2.216-.242-1.088-.124-2.092.465-3.05.391-.638 1.219-1.299 2.043-.974.73.221 1.105.677 1.124 1.37l-.409.298c-.458-.15-.653.57-.198.72 1.744.569 1.437-1.838.612-2.612-1.642-1.538-3.843.122-4.315 1.872-.5 1.846.067 4.155 1.766 5.236M77.806 77.535c5.092 2.135 10.636 3.049 16.14 3.05a56.08 56.08 0 0 0 8.566-.705c.894-.146 7.774-1.58 7.473-2.145-10.88 2.587-23.38 2.534-33.595-2.45-4.79-2.336-8.983-5.787-12.24-10.002-1.638-2.124-3.05-4.416-4.265-6.804-.669-1.31-1.28-2.65-1.84-4.01-.695-1.69-.958-1.611-.388.144 3.288 10.121 10.187 18.791 20.15 22.922M145.365 124.947c-.017.89-.042 1.796-.2 2.724-.06.363-.158.738-.281 1.11.78-.585 1.64-1.018 2.31-1.784.566-.64.85-1.46 1.021-2.281.522-2.497-1.326-4.688-1.17-7.192.023-.306-.432-.508-.633-.261-1.245 1.498-3.041 2.989-3.586 4.941-.648 2.342.456 4.169.73 6.4.211-.365.382-.763.522-1.196.255-.795.406-1.655.544-2.526.14-.87.263-1.762.485-2.636.208-.891.64-1.68 1.006-2.483-.252.849-.566 1.688-.639 2.551-.095.866-.093 1.744-.109 2.633M222.822 136.769c.189.607.448 1.193.699 1.794.25.599.497 1.212.663 1.879.067.26.11.54.139.825.349-.621.797-1.162 1.021-1.87.19-.595.14-1.227.015-1.825-.384-1.823-2.261-2.746-2.891-4.467-.075-.211-.438-.212-.501.011-.392 1.367-1.156 2.89-.947 4.355.251 1.757 1.525 2.654 2.362 4.066a4.49 4.49 0 0 0-.001-.953c-.062-.606-.214-1.226-.376-1.847-.162-.624-.341-1.256-.45-1.907-.121-.656-.063-1.31-.054-1.954.08.641.116 1.295.32 1.893" fill="#FFF"/><path d="M209.875 115.643c1.14-.119 2.508-.005 3.54-.602 1.237-.715 1.524-1.937 2.328-2.987a3.604 3.604 0 0 0-.711.288c-.436.229-.853.529-1.269.835-.417.31-.835.633-1.29.91-.453.288-.96.44-1.443.627.455-.252.932-.475 1.318-.808.397-.324.757-.694 1.13-1.062.373-.366.756-.737 1.205-1.06.174-.128.37-.244.575-.351-.57-.075-1.109-.247-1.705-.201-.501.036-.957.264-1.367.537-1.247.834-1.374 2.514-2.47 3.502-.134.12-.027.392.16.372M169.977 77.613c.291-.24.6-.426.906-.609.306-.18.613-.353.893-.558.286-.196.516-.47.76-.728-.206.287-.394.594-.662.842-.26.25-.546.47-.821.69a6.94 6.94 0 0 0-.77.69 2.47 2.47 0 0 0-.312.418c.83-.347 1.683-.325 2.367-1.014.572-.575.733-1.495 1.01-2.223.044-.12-.116-.237-.218-.17-.839.55-1.967.343-2.73 1.018-.251.223-.48.482-.591.807-.133.383-.112.768-.162 1.155.105-.116.216-.227.33-.318M159.686 109.112c2.405-2.87 9.29-2.138 8.294 2.61-.382 1.853-3.227 3.536-4.398 1.29-.412-.79-.112-2.028.86-2.227.803-.165 1.727.645 1.163 1.445.926-1.068-.799-2.034-1.726-1.504-.757.47-1.017 1.473-.735 2.291.707 2.045 3.654 1.867 4.735.302 3.35-4.676-4.2-8.36-7.629-4.897.444-.569-.115.017-.564.69M166.189 99.045c-.003-.974-1.336-.695-1.577 0-.182.587.139 1.227.655 1.522 1.293.743 2.744-.683 2.596-1.986-.377-3.953-5.984-2.435-6.178.929-.028-.532-.054.035.018.595-.05-2.58 3.858-5.316 5.49-2.4.641 1.135-.075 3.299-1.7 2.661-.573-.223-.977-1.002-.562-1.546.343-.448 1.19-.446 1.258.225M138.943 91.532a.356.356 0 0 0-.194.015c-2.125.767-3.235 3.242-2.728 5.42.536 2.302 2.668 2.54 4.695 2.19.299-.052.329-.432.165-.618-.627-.715-1.625-1.334-2.005-2.229-.545-1.274-.761-3.07.328-4.144.26-.254.015-.62-.261-.634M121.456 99.09c-.909-.574-2.139-.417-2.847-1.297-.209-.268-.626-.037-.634.26-.014 1.082-.315 2.98.87 3.418 1.16.428 2.733.434 3.664 1.988.261-1.081-.017-3.706-1.053-4.37M74.813 18.273c1.212-.747 2.366-1.592 3.608-2.29 1.337-.747 2.723-1.083 4.17-1.519-.08.024-.113.034.021-.004.022-.01.049-.017.08-.027l.102-.03c-.01.003-.02.008-.032.011.981-.3 4.115-1.314 2.936-2.617-1.017-1.125-6.356-1.485-10.885 6.476" fill="#FFF"/><g transform="translate(54.942 .678)"><mask id="d" fill="#fff"><use xlink:href="#c"/></mask><path d="M2.672 15.704C1.49 11.65 4.22 8.122 6.27 7.83c4.458-.632 7.95 3.913 8.138 7.797.077 1.535-.346 4.075-1.203 6.28.442-.742.852-1.502 1.208-2.29.248-.555.47-1.123.657-1.7.094-.338.175-.675.244-1.018a10.42 10.42 0 0 0-.097-3.002c-.322-1.81-1.107-3.573-2.396-4.913a7.655 7.655 0 0 0-2.256-1.61c-.844-.405-1.741-.692-2.649-.928.915.203 1.822.46 2.688.842a7.738 7.738 0 0 1 2.351 1.56c1.337 1.3 2.2 3.035 2.608 4.853-.002-.08-.001-.163-.005-.242-.08-1.8-.47-3.635-1.454-5.167-.488-.761-1.145-1.413-1.887-1.94-.747-.526-1.573-.94-2.428-1.273.865.303 1.709.688 2.48 1.194a7.246 7.246 0 0 1 1.995 1.912c.535.763.915 1.624 1.182 2.513.182.608.308 1.229.395 1.858-.02-.965-.111-1.934-.262-2.893-.137-.84-.284-1.687-.54-2.499-.257-.813-.652-1.589-1.222-2.234.591.623 1.021 1.392 1.311 2.203.292.812.47 1.655.64 2.498.328 1.687.49 3.422.365 5.154-.054.8-.177 1.6-.351 2.385-.03.264-.068.528-.116.79.157-.46.308-.918.464-1.376.438-1.325.899-2.656 1.541-3.904.639-1.247 1.466-2.415 2.538-3.311-1.03.945-1.791 2.136-2.365 3.392-.577 1.263-.973 2.593-1.35 3.932-.256.906-.508 1.817-.817 2.714.674-1.257 1.286-2.556 1.968-3.828.741-1.38 1.579-2.734 2.646-3.893a11.906 11.906 0 0 1 3.77-2.766 11.795 11.795 0 0 0-3.626 2.893c-1.004 1.182-1.772 2.543-2.447 3.94-.68 1.399-1.278 2.841-1.98 4.253a21.093 21.093 0 0 1-1.47 2.546c5.326-4.394 5.848-11.977 13.329-13.41-1.39-1.785-3.56-2.658-5.601-.724.376-1.24-2.158-2.694-4.226 1.517C19.07 7.474 18.208.494 11.506.1c1.348 1.952-.855 2.313.657 4.183-4.484-4.215-8.8-1.065-7.317.877C-1.87 6.25-.21 14.396 2.672 15.704" fill="#FFF" mask="url(#d)"/></g><path d="M61.602 19.27c1.97-1.74 6.194.223 4.909 5.168 3.117-5.87-2.2-10.85-4.909-5.168M81.095 26.613c.522-.606-.764-.776-1.213-.634-.909.289-1.376 1.34-1.308 2.236.122 1.578 1.737 2.575 3.192 2.67 1.746.11 3.069-.867 3.917-2.312 3.206-5.461-5.16-14.356-13.992-5.852 2.488-2.046 7.978-2.942 11.153-.07 1.566 1.375 1.77 3.746.61 5.438-.682.974-2.176 1.417-3.171.59-.046-.038-.401-.395-.473-.606-.134-.407-.064-.95.25-1.267.332-.335.85.018 1.035-.193" fill="#FFF"/><path d="M68.678 26.14c3.638-3.587 7.452-.907 6.928 1.667 3.57-5.186-3.402-7.304-6.928-1.668M81.05 16.126c-1 .47-1.878 1.25-2.893 1.665 2.227-.433 4.356-.327 6.567.053.044.005.102.016.165.028.085.012.083.012.043.008.848.137 3.077.439 2.79-.763-.259-1.086-1.824-1.654-2.785-1.758-1.327-.15-2.694.208-3.887.767M82.836 19.215c1.476.615 2.673 1.656 3.768 2.776.3.304 1.493 1.614 1.973.942.506-.703-.03-4.069-5.741-3.718M416.682 14.414c-.011-.003-.021-.008-.032-.012.03.01.061.02.102.031.032.01.058.018.08.027.135.038.101.028.02.004 1.448.436 2.835.772 4.172 1.52 1.24.697 2.396 1.541 3.607 2.29-4.529-7.962-9.867-7.602-10.885-6.477-1.179 1.303 1.955 2.317 2.936 2.617" fill="#FFF"/><path d="M429.966 23.23a21.031 21.031 0 0 1-1.47-2.546c-.703-1.412-1.3-2.854-1.98-4.252-.677-1.398-1.443-2.758-2.448-3.941a11.782 11.782 0 0 0-3.625-2.893 11.903 11.903 0 0 1 3.769 2.766c1.067 1.159 1.905 2.513 2.646 3.893.682 1.272 1.293 2.571 1.97 3.828-.31-.897-.563-1.808-.818-2.714-.378-1.339-.775-2.669-1.35-3.932-.575-1.257-1.336-2.447-2.367-3.392 1.074.896 1.9 2.064 2.54 3.31.641 1.249 1.103 2.58 1.54 3.905.156.458.307.915.464 1.376a11.537 11.537 0 0 1-.115-.79 15.948 15.948 0 0 1-.352-2.385c-.124-1.732.037-3.467.365-5.154.17-.843.348-1.686.64-2.498.29-.81.72-1.58 1.312-2.203-.57.645-.965 1.421-1.223 2.234-.256.812-.402 1.658-.54 2.5a21.28 21.28 0 0 0-.261 2.892c.087-.63.212-1.25.394-1.858.267-.89.648-1.75 1.182-2.513a7.262 7.262 0 0 1 1.996-1.912c.77-.506 1.615-.89 2.48-1.194-.856.334-1.682.746-2.429 1.273-.741.527-1.398 1.179-1.887 1.94-.984 1.532-1.372 3.367-1.454 5.167-.003.08-.003.163-.004.242.408-1.818 1.27-3.553 2.607-4.852a7.745 7.745 0 0 1 2.351-1.561c.866-.383 1.774-.64 2.688-.842-.907.236-1.804.523-2.649.927-.84.401-1.616.938-2.256 1.61-1.289 1.34-2.073 3.105-2.395 4.913-.177.995-.21 2.01-.097 3.004.068.342.15.68.244 1.017a16.7 16.7 0 0 0 .657 1.7c.355.788.766 1.549 1.206 2.29-.856-2.205-1.28-4.745-1.202-6.28.188-3.884 3.68-8.43 8.138-7.797 2.049.292 4.78 3.82 3.598 7.874 2.88-1.308 4.54-9.454-2.174-10.544 1.482-1.942-2.833-5.092-7.317-.877 1.511-1.87-.692-2.23.656-4.183-6.701.394-7.564 7.374-6.533 9.835-2.068-4.211-4.602-2.758-4.226-1.518-2.04-1.933-4.211-1.06-5.6.725 7.48 1.433 8.003 9.015 13.329 13.41" fill="#FFF"/><path d="M437.843 19.27c-2.71-5.681-8.026-.702-4.909 5.168-1.285-4.945 2.94-6.909 4.909-5.168M416.6 22.652c3.176-2.872 8.665-1.977 11.154.07-8.833-8.505-17.199.39-13.993 5.85.848 1.446 2.172 2.422 3.917 2.313 1.455-.095 3.07-1.092 3.193-2.67.068-.896-.4-1.947-1.309-2.236-.45-.142-1.734.028-1.212.634.185.21.702-.142 1.035.193.313.316.384.86.25 1.267-.073.212-.427.569-.473.606-.996.827-2.489.384-3.171-.59-1.16-1.692-.956-4.063.61-5.437" fill="#FFF"/><path d="M433.066 22.164c.8 1.224.909 2.759.003 3.958-1.02 1.353-3.456 1.31-4.191-.347-2.014 1.245-3.126 3.5-1.252 5.124 1.61 1.397 3.613.54 4.25-1.147.491 1.63 1.79 2.115 2.97 1.886a.854.854 0 0 1-.37.152c.988 3.022 1.796 6.72 2.126 11.165l.722-.055c-.337-4.525-1.145-8.28-2.14-11.345 1.743-.55 3.023-2.64.663-4.804 5.382-.612.211-7.946-2.781-4.587" fill="#FFF"/><path d="M430.767 26.14c-3.527-5.637-10.497-3.519-6.93 1.667-.522-2.574 3.292-5.254 6.93-1.668M414.512 17.88c-.04.004-.041.004.043-.009.063-.011.122-.022.166-.027 2.21-.38 4.34-.486 6.566-.053-1.014-.415-1.892-1.194-2.892-1.665-1.193-.56-2.56-.916-3.888-.767-.96.104-2.525.672-2.784 1.758-.287 1.202 1.941.9 2.789.763M412.84 21.99c1.095-1.119 2.293-2.16 3.768-2.775-5.71-.35-6.247 3.015-5.74 3.718.48.672 1.673-.638 1.973-.943M98.587 87.344c1.281-.805 2.843-1.525 4.737-2.129-.838.05-1.668.16-2.483.339-1.635.652-3.184 1.552-4.53 2.477-.058.039-.11.08-.164.12-2.804 2.003-4.415 5.075-4.87 8.467.286-3.126 1.56-6.002 3.81-8.117.374-.352.771-.683 1.198-.99.392-.283.8-.563 1.22-.835-.742.342-1.46.74-2.15 1.202a18.12 18.12 0 0 0-1.32.973 20.615 20.615 0 0 0-3.3 3.363c-.69.876-1.966 2.406-2.791 4.802.544-2.414 1.96-4.024 2.621-4.93a21.572 21.572 0 0 1 2.575-2.94 19.04 19.04 0 0 1 1.96-1.632 16.426 16.426 0 0 1 5.679-2.632c.319-.14.643-.272.968-.392-3.159.288-6.27 1.634-8.781 3.456a21.343 21.343 0 0 0-2.42 2.057 23.408 23.408 0 0 0-2.702 3.18c-.766 1.081-1.493 2.213-1.85 3.502a10.648 10.648 0 0 0-.358 3.675c-.094-1.356-.29-2.382.236-3.986.422-1.277 1.198-2.47 1.947-3.569a23.71 23.71 0 0 1 2.026-2.57 21.872 21.872 0 0 1 3.08-2.827c2.061-1.55 4.512-2.76 7.079-3.354-1.011.01-2.02.083-3.02.258-2.802.503-5.486 1.82-7.796 3.457a23.506 23.506 0 0 0-4.446 4.153c-.48.582-.937 1.183-1.364 1.806-1.697 2.488-2.73 5.331-3.59 8.197.817-2.999 1.825-5.96 3.557-8.57.288-.434.593-.856.91-1.272a23.692 23.692 0 0 1 4.91-4.845c2.354-1.717 5.106-3.106 7.988-3.633 1.91-.348 3.845-.354 5.778-.26-4.58-1.482-9.532-.692-13.79 1.532-.077.034-.153.069-.231.1-1.107.458-2.257.767-3.417.99-1.188.401-2.387.769-3.61 1.068a29.41 29.41 0 0 1-5.4.832c-1.816.104-3.63.051-5.442.085 1.81-.115 3.625-.143 5.423-.327a29.066 29.066 0 0 0 5.294-1.057c.212-.063.422-.132.635-.198a34.278 34.278 0 0 1-4.726-.008c-2.51-.18-5.013-.572-7.415-1.33-1.525-.481-2.943-1.198-4.31-2.001a70.913 70.913 0 0 1-2.349-1.46c.801.478 1.608.956 2.43 1.403 1.377.747 2.796 1.407 4.299 1.826 2.398.675 4.888.983 7.37 1.08 2.393.083 4.801-.054 7.132-.519a15.818 15.818 0 0 1-4.867-.712c-1.39-.442-2.73-1.097-3.823-2.057 1.145.898 2.502 1.466 3.89 1.824 1.392.355 2.833.499 4.259.459a14.301 14.301 0 0 0 3.46-.525c.658-.28 1.315-.565 1.971-.849-1.008.303-2.111.34-3.153.371-1.38.044-2.74.116-4.09-.26-2.832-.793-6.304-2.578-7.547-5.354-.08-.168-.265-.193-.395-.068-1.481 1.467-1.338 3.298-.465 4.954-1.19-.83-1.805-2.237-2.87-3.244a5.523 5.523 0 0 0-.36-.313c-.881-.705-1.877-1.072-3.023-1.258-.212-.035-.323.187-.227.355.33.58.536 1.32.739 2.021-.394-.394-.798-.793-1.294-1.026-.81-.387-1.642-.545-2.54-.603a12.066 12.066 0 0 0-2.82.19c-.895.16-1.964.488-2.75-.151-.233-.188-.51.163-.291.35 2.297 1.941 2.12 4.444 5.43 4.892.138.019.278.035.427.046-.561.555-1.187 1.018-1.989 1.054-.099.004-.2.006-.305-.003-.18-.015-.364.188-.225.358a.034.034 0 0 1 .01.012c.78.939 1.618 1.791 2.874 1.977.57.086 1.22-.024 1.819-.256.136.503-.38.633-.824.625-.116.059-.217.224-.106.35 1.266 1.392 3.25 2.161 5.19 2.295 2.443.162 4.855-.037 7.256-.546 2.513-.536 4.89-1.57 7.137-2.856-2.042 1.683-3.771 3.719-5.004 5.973-2.975 5.435-3.073 12.124 2.229 18.104-1.384-3.632-1.246-10.81 2.05-14.63-1.932 5.853 3.55 9.155 6.385 7.781-2.76-2.332-3.61-5.281-1.211-8.168-.865 3.237 1.877 4.37 4.288 3.473-1.253-4.466-.763-9.278 4.528-12.602" fill="#FFF"/><g transform="translate(0 3.833)"><mask id="f" fill="#fff"><use xlink:href="#e"/></mask><path d="M430.88 57.004c-4.462 6.13-11.656 8.907-18.953 9.803-3.98.49-8.013.558-12.015.749-6.686.32-13.2 1.647-19.622 3.496a66.888 66.888 0 0 1 3.238-1.37c7.023-2.933 12.85-5.64 11.483-12.233.059.096.108.185.15.27 2.582 4.563-.867 7.755-5.01 9.754 2.72-.737 5.488-1.287 8.29-1.592 6.38-.786 12.882-.673 19.112-2.44 5.493-1.557 10.654-4.983 13.463-10.053 3.024-5.49 2.663-11.984 1.45-17.928.147.391.263.73.357 1.02 2.29 6.788 2.435 14.512-1.943 20.524zm-25.522 5.233c4.27-1.073 7.947-2.852 10.151-6.838a6.755 6.755 0 0 1-.072.56c-1.394 10.334-15.546 8.21-22.662 10.62 3.048-2.954 8.657-3.348 12.583-4.342zm-24.846 16.667c5.503 1.82 10.301 5.204 14.686 8.92-4.809-2.884-9.733-5.794-15.194-7.25-6.646-1.754-18.597-4.242-30.025 2.59 6.335-2.608 14.567-3.127 18.012 2.795-4.006-3.475-25.336-4.153-27.765 12.672-1.925-16.585 5.608-17.568 5.218-25.715 1.446 2.52 1.028 5.915.21 8.89a25.388 25.388 0 0 1 3.224-3.268c2.88-2.425 6.414-4.229 10.06-5.165 3.414-.891 6.926-.666 10.358-1.39-3.022 1.633-6.634 1.835-9.826 3.05-3.1 1.21-6.088 2.741-8.692 4.834a26.749 26.749 0 0 0-2.445 2.154c4.123-2.866 9.211-4.28 14.14-4.894 6.014-.749 12.29-.15 18.039 1.777zm-57.724 21.72c.212-.338.425-.676.637-1.017.364-.117.73-.228 1.093-.34a8.124 8.124 0 0 0-1.73 1.357zm-7.532 9.281c3.052-2.325 1.892-8.534 6.088-9.565.115-.043.313-.091.62-.125-4.125 1.725-2.627 8.27-6.708 9.69zm-3.707-7.93c-7.237 5.168-11.795 13.96-18.84 19.39 2.35-3.617 4.832-7.28 7.511-10.721-1.446.546-2.941.703-4.344.1 3.507-.41 6.303-3.532 8.721-5.822a36.684 36.684 0 0 1 2.285-2.005c-1.872.026-3.683-.437-5.23-1.677 2.485-.064 4.879-.298 7.308-.84 2.478-.55 5.038-1.278 7.6-1.024-1.43.973-3.169 1.924-5.011 2.6zM326.054 126c-2.452 1.008-5.039.99-6.885-1.093 3.841.622 7.436-1.413 10.716-3.555a240.2 240.2 0 0 1 5.379-6.19c2.5-2.768 5.363-5.271 8.849-6.661a9.2 9.2 0 0 1 .958-.365c-3.648 2.23-6.366 5.293-8.938 8.661-2.668 3.606-5.521 7.092-8.338 10.581-4.92 6.096-11.213 13.693-19.62 14.486 7.696-2.615 13.054-9.65 17.879-15.864zm35.415-25.318c-2.771 1.607-5.869-.57-9.037 2.422 2.167-3.817 6.176-2.002 9.037-2.422zm-2.142 6.336c.532 1.494 5.504 6.36 3.913 7.733.406-.956-1.096-2.392-1.64-3.098-.899-1.17-2.143-2.64-2.259-4.2a1.711 1.711 0 0 1-.014-.435zm-70.346 25.622c2.73 1.46 3.841 7.24 7.547 5.497-3.377 3.331-5.857-3.612-7.547-5.497zm-78.951 0c-1.69 1.885-4.17 8.828-7.547 5.497 3.706 1.743 4.817-4.037 7.547-5.497zm-38.814-5.262c-2.817-3.489-5.67-6.975-8.338-10.58-2.572-3.37-5.29-6.432-8.938-8.662.411.134.725.259.958.365 3.486 1.39 6.348 3.893 8.849 6.661a239.69 239.69 0 0 1 5.379 6.19c3.28 2.142 6.874 4.177 10.716 3.555-1.846 2.083-4.433 2.101-6.885 1.093 4.825 6.214 10.183 13.25 17.88 15.864-8.408-.793-14.7-8.39-19.621-14.486zm-33.674-26.696c2.861.42 6.87-1.395 9.037 2.422-3.169-2.993-6.266-.815-9.037-2.422zm2.127 6.771c-.115 1.56-1.36 3.03-2.258 4.2-.544.706-2.046 2.142-1.64 3.098-1.59-1.373 3.382-6.239 3.913-7.733.014.202.003.343-.015.435zm47.792-5.477c-1.841-.675-3.58-1.626-5.01-2.599 2.562-.254 5.123.475 7.6 1.024 2.429.542 4.823.776 7.307.84-1.546 1.24-3.357 1.703-5.23 1.677a36.76 36.76 0 0 1 2.286 2.005c2.418 2.29 5.214 5.412 8.72 5.821-1.402.604-2.897.447-4.343-.1 2.679 3.442 5.162 7.105 7.512 10.722-7.047-5.43-11.605-14.222-18.842-19.39zm-3.706 7.93c-4.082-1.42-2.583-7.965-6.708-9.69.307.034.505.082.62.125 4.196 1.031 3.036 7.24 6.088 9.565zm-9.262-10.638c.364.112.729.223 1.093.34.212.341.425.679.637 1.017a8.136 8.136 0 0 0-1.73-1.357zm-15.708-.636c-2.43-16.825-23.76-16.147-27.765-12.672 3.445-5.922 11.676-5.403 18.012-2.795-11.429-6.832-23.38-4.344-30.025-2.59-5.461 1.456-10.385 4.366-15.194 7.25 4.385-3.716 9.183-7.1 14.686-8.92 5.748-1.927 12.025-2.526 18.04-1.777 4.927.613 10.015 2.028 14.14 4.894a26.675 26.675 0 0 0-2.446-2.154c-2.604-2.093-5.592-3.624-8.693-4.833-3.191-1.216-6.803-1.418-9.825-3.05 3.432.723 6.944.498 10.358 1.389 3.646.936 7.18 2.74 10.06 5.165 1.175.99 2.252 2.089 3.224 3.268-.819-2.975-1.236-6.37.21-8.89-.39 8.147 7.143 9.13 5.218 25.715zM99.098 67.556c-4.002-.19-8.034-.26-12.015-.749-7.296-.896-14.49-3.672-18.953-9.803-4.377-6.012-4.232-13.736-1.942-20.525.094-.29.21-.628.356-1.019-1.212 5.944-1.574 12.437 1.45 17.928 2.81 5.07 7.97 8.496 13.464 10.053 6.23 1.767 12.73 1.654 19.11 2.44 2.804.305 5.571.855 8.29 1.592-4.14-2-7.59-5.191-5.008-9.755.043-.084.091-.173.15-.27-1.366 6.595 4.46 9.301 11.483 12.234 1.09.431 2.173.883 3.238 1.37-6.423-1.85-12.936-3.177-19.623-3.496zM62.463 39.094l-.07.314-.01-.32.08.006zm31.19 23.143c3.926.994 9.535 1.388 12.582 4.343-7.116-2.41-21.267-.287-22.662-10.62a6.755 6.755 0 0 1-.071-.561c2.204 3.986 5.88 5.765 10.15 6.838zm86.189 27.45c1.585 2.81-1.115 5.52-3.913 5.59 2.42-1.28 4.037-2.669 3.913-5.59zm139.327 0c-.124 2.921 1.493 4.31 3.913 5.59-2.799-.07-5.498-2.78-3.913-5.59zm179.526-77.173c-2.236-5.403-6.971-9.059-12.446-10.827-11.596-3.747-25.053-.306-34.097 7.608-7.94 6.948-13.06 17.122-14.318 27.61l-.08.331c.058-1.678-.03-1.504-.118.535a45.657 45.657 0 0 0-.66 3.81c-.448-3.73-1.68-7.407-4.461-9.97-3.928-3.622-10.922-5.063-15.58-1.929-4.08 2.658-5.826 10.864-.096 12.794 2.163.726 5.195-.116 5.385-2.77.202-3.186-4.263-3.018-3.515-.868.858.003.586-.85 1.357-.827 1.105.03 1.188 1.39.8 2.145-1.126 2.186-4.437.84-5.268-.878-1.108-2.291-.143-5.284 1.686-6.896 2.417-2.134 5.918-2.22 8.988-1.092.818 2.744 4.845 4.088 4.13 6.593-.254-.142-.515-.239-.82-.358-.224-.09-.477.135-.47.358.187 4.13.388 8.035-1.938 11.665-2.258 3.533-5.813 6.507-9.824 7.849 1.14-2.512.954-5.121-1.021-7.29-.194-.216-.544-.097-.62.164-1.027 3.318-5.805 2.996-8.325 4.465-3.078 1.796-4.59 6.522-8.422 6.79.596-3.697-1.446-7.155-5.494-7.625-3.115-.358-7.453.7-5.672 4.666.164.366.679.15.693-.186.09-2.028 1.64-3.354 3.407-1.871 1.505 1.26 1.408 3.883.686 5.508-1.29 2.885-5.077 4.062-7.857 4.8-1.265.337-8.493 1.397-9.271 3.455-1.3.208-2.601.445-3.895.722a12.789 12.789 0 0 0 1.538-1.546c.261-.313-.067-.812-.447-.58-1.684.991-3.451-.045-5.038-.716-1.104-.462-2.14-.545-3.325-.522-1.29.022-2.721.283-3.615 1.17-.112-1.05-.41-1.952-1.178-2.854-.194-.232-.537-.083-.62.164-.722 1.982-1.221 3.853-3.8 3.897-1.185.023-2.25-.148-3.235.657-1.342 1.088-1.841 2.638-2.31 4.21.044-1.177-.053-2.325-.687-3.473-.857-1.55-2.616-2.422-4.233-2.944-.29-.097-.507.194-.455.455.873 4.576-2.46 8.602-4.308 12.515-1.617 3.414-2.646 7.067-2.557 10.853.052 2.504.82 5.135 1.32 7.588.158.763.32 1.735.598 2.66-4.02-4.178-11.062-5.83-13.285-6-.693-.372-1.274-.909-1.64-1.797-.954-2.406-.499-5.023 1.76-6.529 2.071-1.386 6.142.15 4.874 3.078-.454 1.059-1.9 1.82-2.847.872-1.074-1.072.686-1.4-.022-2.354-2.616 1.065.656 5.105 2.974 2.333 1.342-1.612 1.22-3.152.092-4.24.795.242 1.6.359 2.409.023 1.213-.508.856-1.367 2.727-2.217.291-.088.615-.532.857-.704.232-.164.019-.608-.222-.449-1.237.82-2.738.08-4.087.74 1.008-.923 1.68-2.135 1.988-3.595.498-2.355-.488-5.106-2.443-6.177-.847-.423-1.163-1.992-1.02-2.405.197-.575.581-1.106 1.107-1.427.647-.394 1.32-.535 2.067-.366.495.113 1.101.5 1.072 1.104.017.518-.195.859-.636 1.022l-.282-.199c-.005-.327-.51-.294-.506.031.013 1.246 1.498.523 1.814-.176.633-1.394-.916-2.449-2.146-2.371-1.299.083-2.662.949-2.987 2.28-.123.5-.07 1.456.26 2.092-.609-.088-1.674-.49-2.395-.262-2.015.64-2.977 3.06-1.46 4.775.948 1.072 3.774.54 3.156-1.188-.753.036-.226.682-.745 1.045-.63.435-1.557.077-1.875-.569-.74-1.557.481-3.07 2.015-3.33 4.012-.678 5.382 4.085 4.104 7.072-.969 2.263-3.144 3.43-5.659 3.772a4.477 4.477 0 0 0-2.184.188c-2.568.896-3.906 3.039-4.044 5.383-.08-.187-.152-.373-.246-.56-.536-1.074-1.664-2.043-2.074-3.214.052-.386.016-.789-.162-1.229-.165-.403-.69-.328-.743.096-.044.404-.016.784.096 1.156-.179 1.007-1.105 1.939-1.567 2.803-.432.797-.399 1.632-.1 2.452.96 2.617 3.644 2.9 5.88 2.907.047 0 .081-.01.122-.016.026.04.052.082.08.12-2.504.15-4.982.772-7.38 1.735-2.304-1.946-4.726-1.056-7.386-.117-1.588.551-8.49 3.332-7.998-.32.059-.418-.425-.65-.679-.284-1.342 1.878-.678 5.382 1.416 5.949-.543.26-1.11.447-1.774.417-.798-.045-1.543-.18-2.288.216-1.207.633-1.528 1.513-1.751 2.81-.15.887-.477 1.646-1.2 2.206-.187.15-.314.611-.269.843.65 3.13-2.288 5.306-5.18 5.448-.269.015-.485.313-.32.56 1.563 2.38 3.907 1.507 5.979.385-.118.144-.241.282-.36.427-1.773 2.169-3.6 4.606-5.798 6.447-4.13-2.974-9.214-4.353-14.356-4.725-4.207-.306-8.423 1.024-11.876 3.341-.365-1.773-1.924-3.549-3.926-2.88-.985.329-1.714.88-2.326 1.723-.477.671-.917 1.371-1.476 1.982-1.363 1.462-3.756.686-3.928-1.297-.037-.432-.574-.492-.731-.097a5.273 5.273 0 0 0-.172.52 5.273 5.273 0 0 0-.171-.52c-.158-.395-.694-.335-.731.097-.172 1.983-2.565 2.759-3.928 1.297-.559-.61-1-1.31-1.476-1.982-.612-.842-1.342-1.394-2.326-1.723-2.001-.669-3.56 1.107-3.926 2.88-3.453-2.317-7.669-3.647-11.876-3.341-5.143.372-10.226 1.751-14.356 4.725-2.199-1.841-4.025-4.278-5.799-6.447-.118-.145-.24-.283-.36-.427 2.073 1.122 4.417 1.995 5.98-.386.165-.246-.052-.544-.32-.559-2.892-.142-5.83-2.318-5.18-5.448.044-.232-.082-.694-.269-.843-.723-.56-1.05-1.32-1.2-2.206-.223-1.297-.544-2.177-1.751-2.81-.746-.395-1.491-.26-2.289-.216-.664.03-1.23-.157-1.774-.417 2.094-.567 2.758-4.07 1.416-5.949-.253-.366-.737-.134-.678.283.491 3.653-6.41.872-7.998.32-2.66-.938-5.083-1.828-7.387.118-2.397-.963-4.875-1.586-7.378-1.735.027-.038.052-.08.079-.12.04.006.075.016.122.016 2.235-.007 4.919-.29 5.88-2.907.299-.82.332-1.655-.1-2.452-.463-.864-1.388-1.796-1.567-2.803.112-.372.14-.752.095-1.156-.052-.424-.577-.499-.742-.096-.178.44-.214.843-.162 1.23-.41 1.17-1.538 2.139-2.075 3.212-.093.188-.166.374-.246.56-.137-2.343-1.476-4.486-4.042-5.382a4.48 4.48 0 0 0-2.186-.188c-2.515-.342-4.689-1.509-5.659-3.772-1.278-2.987.093-7.75 4.104-7.071 1.535.258 2.756 1.772 2.015 3.33-.318.645-1.244 1.003-1.874.568-.519-.363.008-1.009-.746-1.045-.618 1.729 2.209 2.26 3.156 1.188 1.518-1.716.556-4.136-1.459-4.775-.721-.229-1.787.174-2.396.262.331-.636.384-1.593.26-2.092-.324-1.331-1.688-2.197-2.986-2.28-1.23-.078-2.78.977-2.147 2.37.317.7 1.801 1.423 1.815.177.005-.325-.502-.358-.506-.03l-.282.198c-.441-.163-.653-.504-.636-1.022-.03-.603.577-.991 1.072-1.104.747-.17 1.42-.028 2.066.366.527.32.911.852 1.108 1.427.143.413-.173 1.982-1.02 2.405-1.955 1.071-2.942 3.822-2.444 6.177.308 1.46.98 2.672 1.99 3.594-1.35-.658-2.851.082-4.088-.739-.241-.16-.455.285-.222.45.241.171.566.615.857.703 1.87.85 1.513 1.709 2.727 2.217.808.336 1.614.219 2.41-.024-1.128 1.09-1.25 2.63.09 4.24 2.32 2.773 5.591-1.267 2.975-2.332-.708.954 1.051 1.282-.023 2.354-.946.947-2.392.187-2.846-.872-1.268-2.929 2.802-4.464 4.875-3.078 2.257 1.506 2.712 4.123 1.758 6.53-.365.887-.946 1.424-1.639 1.796-2.224.17-9.267 1.822-13.285 6 .278-.925.44-1.897.598-2.66.5-2.453 1.267-5.084 1.32-7.588.089-3.786-.94-7.44-2.557-10.853-1.848-3.913-5.18-7.939-4.308-12.515.052-.26-.165-.552-.455-.455-1.617.522-3.377 1.394-4.233 2.944-.634 1.148-.731 2.296-.687 3.474-.47-1.573-.969-3.123-2.31-4.211-.984-.805-2.05-.634-3.235-.657-2.58-.044-3.078-1.915-3.801-3.897-.083-.247-.426-.396-.62-.164-.767.902-1.065 1.803-1.177 2.855-.894-.888-2.325-1.149-3.615-1.17-1.185-.024-2.221.059-3.325.52-1.587.672-3.354 1.708-5.038.716-.38-.231-.708.268-.447.581.473.57.991 1.079 1.537 1.546a76.629 76.629 0 0 0-3.894-.722c-.778-2.058-8.006-3.118-9.271-3.454-2.78-.739-6.567-1.916-7.857-4.8-.723-1.626-.82-4.25.686-5.51 1.767-1.482 3.317-.156 3.406 1.872.015.336.53.552.694.186 1.781-3.966-2.557-5.024-5.672-4.666-4.048.47-6.09 3.928-5.494 7.625-3.832-.268-5.344-4.994-8.422-6.79-2.52-1.469-7.298-1.147-8.326-4.465-.075-.261-.426-.38-.619-.164-1.976 2.169-2.162 4.778-1.021 7.29-4.01-1.342-7.566-4.316-9.825-7.849-2.325-3.63-2.124-7.536-1.938-11.665.008-.223-.246-.447-.47-.358-.305.12-.565.216-.82.358-.714-2.505 3.313-3.85 4.13-6.593 3.071-1.127 6.572-1.042 8.989 1.092 1.829 1.612 2.794 4.605 1.686 6.896-.831 1.718-4.142 3.064-5.269.878-.387-.754-.304-2.115.8-2.145.772-.022.5.83 1.358.827.748-2.15-3.717-2.318-3.515.868.19 2.654 3.222 3.496 5.384 2.77 5.73-1.93 3.984-10.136-.096-12.794-4.657-3.134-11.651-1.693-15.579 1.928-1.644 1.515-2.745 3.42-3.465 5.493.399-3.558 1.103-6.594 1.937-9.145a.858.858 0 0 1-.37-.153c1.18.23 2.48-.256 2.972-1.886.636 1.688 2.64 2.545 4.249 1.147 1.874-1.623.761-3.878-1.253-5.123-.735 1.656-3.17 1.7-4.191.346-.905-1.199-.796-2.733.004-3.957-2.992-3.36-8.164 3.974-2.78 4.586-2.361 2.164-1.082 4.255.662 4.804-.847 2.608-1.557 5.718-1.958 9.374-.083-1.522-.149-1.308-.066.634l-.003.036c-1.074-10.79-6.257-21.333-14.414-28.47C38.776 1.38 25.319-2.06 13.723 1.685 8.248 3.456 3.513 7.112 1.277 12.515c-2.22 5.365-1.602 11.541 2.3 15.978 3.532 4.012 9.563 6.27 14.613 3.831 4.78-2.307 7.892-8.87 4.25-13.462-1.53-1.928-4.013-3.11-6.486-2.697-2.396.477-4.474 2.818-4.208 5.34.264 2.506 3.683 4.678 5.602 2.36 2.012-2.43-2.028-4.623-2.452-2.345.43-1.843 2.953-.711 2.837.88-.15 2.066-2.589 2.53-4.048 1.541-3.481-2.366-.19-7.116 3.182-7.125 2.74-.008 5.21 2.154 5.952 4.713.761 2.624-.293 5.495-2.065 7.467-4.064 4.525-10.798 3.578-15.003-.197-3.955-3.551-5.246-8.97-3.76-14.008C3.557 9.478 7.735 5.56 12.8 3.539c11.332-4.52 25.208-1.123 34.338 6.55 8.372 7.035 13.642 17.58 15.03 28.393-.017.194-.034.388-.048.585l.121.01c.028.234.051.47.075.705-.021.108-.043.216-.062.325-2.92-17.945-14.792-24.727-26.084-22.128-3.855.888-14.5 10.187-8.021 18.115 1.119-4.075 2.103-7.956 7.607-10.125-2.216 3.597-.86 6.614.58 6.967 1.588.388 6.171-4.846 5.252-2.63-1.056 2.549 1.37 4.806 4.07 2.973 5.406-3.668 10.767.215 10.162 4.064-2.177-3.247-5.61-4.042-5.6-1.18-4.62-3.21-7.947.756-3.696 2.854-2.861.046-7.446 1.676-5.45 6.201 9.134-5.132 17.18-3.227 20.58 1.497-.009-.03-.02-.059-.03-.087-3.794-5.603-10.074-9.15-16.624-4.867 4.806-5.855 11.716-2.963 15.594 2.08-.671-3.593-1.927-8.708-5.482-11.856-4.305-3.813-11.11-5.824-16.288-3.469 3.61-2.705 8.487-2.813 12.533-1.076-4.77-3.594-10.903-4.546-16.955-3.769 7.222-2.172 14.87-.595 20.155 4.678-3.52-4.547-9.207-8.178-14.844-7.5 7.045-2.094 14.767 3.746 17.972 9.58 1.537 2.798 2.689 5.997 4.165 13.461a36.69 36.69 0 0 0-.028 2.013c.169 12.737 9.878 21.97 21.906 24.415 12.962 2.577 26.42 1.235 39.515 2.761-3.273.274-6.463.972-9.395 2.147-10.808 4.331-18.908 15.683-16.783 27.632.984 5.53 4.65 10.383 9.71 12.827 4.92 2.37 11.275 2.572 15.426-1.416 3.355-3.215 4.762-9.412 1.542-12.866-.926-4.038 1.812-9.512 6.48-7.373 2.175.989 3.452 4.96.36 5.774-1.087.287-2.527-.429-2.501-1.68.022-1.034 1.276-1.946 2.104-1.028-1.057-1.438-2.726.415-2.333 1.704.366 1.063 1.528 1.664 2.614 1.545 2.715-.3 3.318-3.976 1.694-5.744-4.332-4.878-10.134 1.3-8.869 6.368a7.118 7.118 0 0 0-1.783-1.145c-2.4-1.089-5.798-.783-7.154 1.736-1.052 1.946-1.19 4.994 2.097 4.897v-.193c0-1.066-1.545-.887-1.516-2.392 0-1.082.698-2.088 1.63-2.625 2.258-1.297 5.269.641 6.096 2.795 1.938 5.061-3.395 9.616-8.008 9.557-5.509-.396-10.359-4.048-11.843-9.452-1.263-4.614.115-9.809 2.643-13.935 2.37-1.086 4.797-1.58 7.393-.742 1.477.47 3.239 1.268 4.834.962 1.885-.358 2.446-1.856 3.05-3.488 1.013-2.706 3.288-4.405 5.994-4.197-1.774.746-2.497 2.661-2.415 4.89.015.276.313.476.566.32 1.334-.82 2.975-1.58 4.302-.178.476.506.901 1.088 1.415 1.542.694.619 1.633 1.2 2.624.91 1.252-.373 1.93-1.267 2.729-2.244 1.281-1.558 3.145-2.191 5.18-1.371-4.137 3.905 3.205 13.462 7.953 9.48.268-.223-.06-.618-.358-.633-2.788-.156-4.756-3.436-2.452-5.65 1.274-1.222 9.098-2.052 10.89 17.793.88-1.312 7.848-9.496 15.056-8.602 1.305.313 2.498 1.014 3.4 2.274 1.84 2.571 1.327 8.34-2.676 8.578-1.2.068-2.423-.663-2.528-1.952-.081-.902.545-2.125 1.626-1.841.484.126.656.32.886-.366-2.027-1.192-3.518 1.372-2.892 3.117.366 1.005 1.268 1.743 2.252 2.063 4.308 1.428 6.57-2.982 6.182-6.125.595 1.298 1.23 2.619 2.084 3.748 1.454 1.93 3.63 3.876 6 2.191.2-.14.283-.52 0-.64-2.944-1.268-2.445-5.137-4.33-7.387a9.241 9.241 0 0 0-1.635-1.532c5.044 2.473 9.2 6.592 13.017 10.625 4.084 4.324 9.004 10.078 14.713 13.447a22.526 22.526 0 0 0-4.234 5.411c-.7-3.495-3.8-6.738-7.543-6.372a4.897 4.897 0 0 0-1.599.45c2.945-4.862-1.65-13.085-7.38-8.99-2.075 1.433-2.314 5.34.396 6.28 1.084.375 2.415.03 3.039-.972.704-1.23-.575-3.517-1.992-2.291 1.063-.747 2.135.48 1.915 1.544-.266 1.288-1.909 1.685-2.955 1.138-2.975-1.557-.74-5.326 1.718-5.83 5.432-1.135 6.892 5.507 4.745 9.395-1.626.978-2.804 2.8-2.285 4.71.582 2.124 4.286 3.622 4.972.745-1.036-.679-1.357 1.386-2.87.626-1.587-.782-1.595-2.669-.715-3.988 1.938-2.907 5.836-1.774 7.737.529 4.762 5.776-1.731 11.632-7.486 12.843a.37.37 0 0 0-.333-.246c-2.512-.216-4.502-1.655-5.837-3.757-.916-1.446-1.423-3.123-2.355-4.532-.7-1.058-1.595-1.907-2.892-2.132-.999-.178-2.132-.268-2.698-1.289-.105-.186-.208-.358-.314-.536 1.625.253 3.63-.745 4.286-2.155.731-1.572.955-4.316-1.088-4.964-.216-.074-.484.12-.47.358.247 3.548-2.92 1.46-5.336.455 3.645-1.752 1.133-10.465-3.049-7.67-.305.2-.2.693.187.693 2.11.014 1.721 3.1.268 3.831-1.745.872-3.652.186-5.187-.812-1.716-1.119-3.193-3.068-4.97-4.201-3.923-4.041-8.785-7.447-14.06-9.015-1.297-2.095-3.488-4.405-5.86-4.89-3.018-.618-6.395 1.103-9.137-.7-.35-.232-.783.32-.447.58 1.02.806 1.885 2.066 3.085 2.617 1.163.53 2.393.857 3.66 1.044.843.12 1.945.201 3.004.418a19.289 19.289 0 0 0-7.93 1.475c-5.315 2.192-9.728 6.694-11.033 12.388-1.281 5.553.522 11.949 6.076 14.364 3.925 1.713 8.43 2.001 11.132-1.26 3.123-4.44 7.36-3.261 8.357-2.27 2.026 2.016 3.836 6.457 1.84 9.133-1.561 2.096-5.07 2.415-6.727.45-1.328-1.412-1.184-5.49.79-5.442 1.326.032 2.215 1.118 1.66 2.414-.187.436.456.816.644.375 1.343-3.14-3.448-5.042-4.512-1.88-.335.992-.297 1.754-.185 2.86-.781-1.477-2.094-.959-2.207-1.973-.052-.425-.581-.506-.738-.104-.507 1.372-.589 2.974.56 4.054 1.347 1.267 2.947 1.342 4.705 1.268 1.234.707 2.822.868 4.502.135 5.074-2.216 4.206-7.339 2.426-10.73.913.646 1.603 1.535 2.588 2.18.805.529 1.856.312 2.699.075.342-.09.372-.642 0-.716-2.095-.44-2.326-3.481-4.174-4.517-1.195-.668-3.312-.263-4.657.097-2.523-.743-5.674-.337-7.194 1.09a7.202 7.202 0 0 0-.001-1.947c-.336-2.535-2.818-4.547-5.404-3.675-2.333.782-2.616 5.27.373 4.644.082-.977-.56-.523-1.111-.955-.596-.462-.537-1.416-.224-2.02.902-1.759 3.474-1.267 4.63-.082 2.705 2.781.089 7.521-3.131 8.401-3.965 1.028-8.304-.79-10.354-4.338-1.915-3.325-1.654-7.686-.141-11.114 1.936-4.404 6.122-8.08 10.777-8.868-.266.1-.507.501-.715.728-.82.88-1.662 1.707-2.385 2.669-1.9 2.512-1.133 4.979 1.438 6.59.27.17.65-.112.545-.418-.328-1.029-.545-2.795 1.29-3.057.089-.014 1.356-.11 1.617-.2.388-.134.88-.269 1.163-.597.47-.551.596-1.2.447-1.908-.223-1.073-.753-2.042-1.029-3.1-.145-.556-.099-.996.064-1.345.012-.003.022-.012.033-.012 6.21-.694 11.844 3.096 16.033 7.278 7.447 7.417 12.105 17.373 20.461 23.925 4.45 3.488 10.435 6.253 16.205 5.277 2.772-.469 5.367-1.78 7.337-3.737 1.14-.012 2.751.997 3.604 1.142 1.193.208 2.625.26 3.698-.418 1.177-.73 1.677-1.774 1.915-3.123.366-1.982.619-3.317 2.646-4.242.313-.14.194-.588-.09-.678-1.93-.618-3.95-1.02-5.426.671-.894 1.021-1.013 2.52-2.057 3.458-.752.674-1.66.948-2.612 1.125a11.952 11.952 0 0 0 1.726-4.318c2.109-3.458 3.8-5.287 5.731-6.68 2.974 1.468 6.15 2.227 9.526 1.787 3.608-.47 7.096-1.863 10.42-5.351-.402-.105-.64-.263-1.17-.479-3.22 3.034-7.67 4.153-11.24 4.026-1.893-.067-3.533-.671-5.017-1.58 2.266-1.23 4.794-1.812 7.283-2.506 5.235-1.45 9.675-.381 13.043 1.619-.855.95-1.112 3.266-1.14 4.143-.067 2.803 2.423 6.15 5.434 5.748.276-.037.552-.403.261-.634-1.64-1.344-1.323-4.72-1.829-7.257 2.056 1.84 3.442 3.948 4.028 5.625 1.193 3.42.858 7.99-1.334 10.987-2.035 2.862-6.35 3.816-9.347 1.886-2.504-1.618-2.773-7.5 1.23-6.955 1.4.194 1.7 1.118 1.513 2.34-.477.769-1.372.097-1.588 1.089 1.573.984 2.922-.686 2.877-2.132-.067-2.266-2.623-3.287-4.569-2.84-1.966.453-3.085 1.921-3.503 3.66-2.715-2.799-8.01-3.647-10.516-.251-1.79 2.425-1.536 7.515 1.854 8.546 1.766.537 3.698.213 4.836-1.269 2.67-3.478 0-6.211-1.553-6.148-1.186.048-1.74.78-1.74 1.74 0 .959.78 1.738 1.74 1.738.633 0 1.182-.342 1.486-.848.377 2.339-1.23 3.9-2.58 4.152-2.432.455-4.493-1.373-4.384-3.745.323-7.013 7.638-5.613 10.713-1.547.162 2.128.284 2.9 1.473 4.286 3.168 3.697 9.293 3.379 13.154.86 3.928-2.572 5.65-7.53 5.552-12.091-.075-3.455-1.632-6.79-4.077-9.532 1.216-1.317 4.845 1.342 6.403 1.028 1.269-.26 2.034-1.022 2.356-1.992.323.97 1.088 1.732 2.357 1.992 1.557.314 5.187-2.345 6.403-1.028-2.446 2.741-4.002 6.077-4.078 9.532-.096 4.562 1.625 9.519 5.553 12.09 3.862 2.52 9.986 2.838 13.153-.859 1.19-1.386 1.312-2.158 1.474-4.286 3.075-4.066 10.39-5.466 10.712 1.547.11 2.372-1.951 4.2-4.384 3.745-1.35-.251-2.956-1.813-2.58-4.152a1.733 1.733 0 0 0 3.226-.89c0-.96-.553-1.692-1.739-1.74-1.553-.063-4.224 2.67-1.553 6.148 1.137 1.482 3.07 1.806 4.836 1.27 3.39-1.032 3.644-6.122 1.854-8.547-2.505-3.396-7.801-2.548-10.516.252-.419-1.74-1.537-3.208-3.503-3.66-1.946-.448-4.502.573-4.57 2.839-.045 1.446 1.305 3.116 2.878 2.132-.216-.992-1.111-.32-1.588-1.089-.186-1.222.112-2.146 1.513-2.34 4.003-.544 3.734 5.337 1.23 6.955-2.997 1.93-7.312.976-9.347-1.886-2.192-2.997-2.527-7.566-1.334-10.987.586-1.677 1.971-3.784 4.027-5.625-.506 2.538-.188 5.913-1.829 7.257-.29.231-.014.597.261.634 3.012.402 5.501-2.945 5.434-5.748-.027-.877-.285-3.192-1.139-4.143 3.368-2 7.807-3.069 13.043-1.619 2.49.694 5.017 1.275 7.282 2.505-1.483.91-3.123 1.514-5.016 1.58-3.57.128-8.02-.99-11.24-4.025-.53.216-.768.374-1.17.479 3.324 3.488 6.812 4.881 10.42 5.351 3.376.44 6.551-.319 9.526-1.788 1.93 1.394 3.622 3.223 5.731 6.681.297 1.596.901 3.041 1.726 4.318-.952-.177-1.86-.45-2.612-1.125-1.044-.939-1.164-2.437-2.057-3.458-1.477-1.692-3.497-1.29-5.427-.671-.283.09-.403.537-.09.678 2.027.925 2.28 2.26 2.646 4.242.239 1.349.739 2.393 1.916 3.123 1.073.678 2.505.626 3.697.418.853-.145 2.465-1.154 3.605-1.142 1.97 1.957 4.565 3.268 7.337 3.737 5.77.976 11.755-1.79 16.205-5.277 8.356-6.552 13.014-16.508 20.46-23.925 4.19-4.182 9.825-7.972 16.034-7.278.01 0 .021.01.032.012.163.349.21.79.064 1.345-.276 1.058-.804 2.027-1.029 3.1-.148.708-.022 1.357.448 1.908.284.328.775.463 1.163.596.26.09 1.528.187 1.617.201 1.834.262 1.618 2.028 1.29 3.057-.105.306.276.588.544.417 2.572-1.61 3.34-4.077 1.438-6.59-.723-.96-1.565-1.789-2.384-2.668-.209-.227-.45-.628-.715-.728 4.655.789 8.841 4.464 10.777 8.868 1.513 3.428 1.774 7.79-.142 11.114-2.05 3.547-6.388 5.366-10.353 4.338-3.22-.88-5.836-5.62-3.13-8.401 1.155-1.185 3.726-1.677 4.628.082.313.604.373 1.558-.223 2.02-.552.432-1.193-.022-1.111.955 2.989.626 2.706-3.862.373-4.644-2.586-.872-5.069 1.14-5.404 3.675a7.18 7.18 0 0 0-.001 1.947c-1.52-1.427-4.672-1.833-7.194-1.09-1.346-.36-3.462-.765-4.657-.097-1.848 1.036-2.08 4.077-4.174 4.517-.373.074-.343.626 0 .716.842.237 1.893.454 2.698-.075.986-.645 1.675-1.534 2.59-2.18-1.782 3.391-2.649 8.514 2.425 10.73 1.68.733 3.268.572 4.502-.135 1.757.074 3.357-.001 4.706-1.268 1.147-1.08 1.065-2.682.559-4.054-.157-.402-.687-.32-.738.104-.113 1.014-1.426.496-2.208 1.974.113-1.107.15-1.87-.184-2.86-1.065-3.163-5.856-1.26-4.512 1.88.188.44.83.06.643-.376-.554-1.296.335-2.382 1.66-2.414 1.975-.048 2.119 4.03.79 5.443-1.656 1.964-5.165 1.645-6.727-.451-1.995-2.676-.184-7.117 1.841-9.132.997-.992 5.234-2.172 8.357 2.269 2.702 3.261 7.207 2.973 11.132 1.26 5.553-2.415 7.357-8.81 6.075-14.364-1.305-5.694-5.717-10.196-11.031-12.388a19.293 19.293 0 0 0-7.931-1.475c1.058-.217 2.161-.299 3.003-.418 1.268-.187 2.498-.514 3.66-1.044 1.2-.55 2.066-1.811 3.086-2.616.336-.26-.097-.813-.447-.58-2.742 1.802-6.12.08-9.138.7-2.371.484-4.562 2.794-5.86 4.89-5.274 1.567-10.136 4.973-14.058 9.014-1.779 1.133-3.255 3.082-4.97 4.2-1.536.999-3.444 1.685-5.189.813-1.452-.73-1.84-3.817.27-3.83.386 0 .491-.493.185-.694-4.182-2.795-6.694 5.918-3.048 7.67-2.415 1.006-5.583 3.093-5.337-.455.014-.239-.253-.432-.47-.358-2.042.648-1.819 3.392-1.088 4.964.656 1.41 2.661 2.408 4.286 2.155-.105.178-.209.35-.313.536-.566 1.021-1.7 1.111-2.699 1.289-1.297.225-2.191 1.074-2.892 2.132-.93 1.409-1.438 3.086-2.355 4.532-1.334 2.102-3.324 3.54-5.836 3.757a.37.37 0 0 0-.333.246c-5.756-1.211-12.248-7.067-7.487-12.843 1.902-2.303 5.8-3.436 7.738-.53.88 1.32.872 3.207-.716 3.989-1.512.76-1.834-1.305-2.87-.626.686 2.877 4.391 1.379 4.973-.746.52-1.91-.66-3.731-2.285-4.71-2.147-3.887-.687-10.53 4.745-9.394 2.459.504 4.692 4.273 1.717 5.83-1.046.547-2.689.15-2.954-1.138-.22-1.064.852-2.29 1.914-1.544-1.416-1.226-2.695 1.062-1.991 2.291.623 1.003 1.955 1.347 3.039.972 2.71-.94 2.47-4.847.395-6.28-5.73-4.095-10.325 4.128-7.38 8.99a4.902 4.902 0 0 0-1.599-.45c-3.74-.366-6.842 2.877-7.542 6.372a22.531 22.531 0 0 0-4.234-5.41c5.71-3.37 10.629-9.124 14.714-13.448 3.816-4.033 7.972-8.152 13.016-10.625a9.232 9.232 0 0 0-1.635 1.532c-1.885 2.25-1.386 6.12-4.33 7.387-.283.12-.201.5 0 .64 2.37 1.685 4.546-.26 6-2.19.854-1.13 1.49-2.451 2.083-3.749-.388 3.143 1.875 7.553 6.183 6.125.984-.32 1.886-1.058 2.252-2.063.625-1.745-.866-4.31-2.892-3.117.23.686.402.492.886.366 1.08-.284 1.707.94 1.626 1.841-.106 1.29-1.328 2.02-2.528 1.952-4.003-.238-4.517-6.007-2.676-8.578.902-1.26 2.095-1.961 3.4-2.274 7.207-.894 14.176 7.29 15.055 8.602 1.793-19.845 9.616-19.015 10.891-17.792 2.303 2.213.336 5.493-2.452 5.65-.299.014-.627.41-.358.633 4.748 3.981 12.09-5.576 7.953-9.481 2.035-.82 3.898-.187 5.18 1.371.798.977 1.477 1.871 2.728 2.244.992.29 1.93-.291 2.625-.91.513-.454.938-1.036 1.415-1.542 1.327-1.402 2.967-.642 4.302.178.253.156.55-.044.566-.32.082-2.229-.642-4.144-2.415-4.89 2.705-.208 4.98 1.491 5.993 4.197.604 1.632 1.163 3.13 3.048 3.488 1.596.306 3.354-.492 4.83-.962 2.596-.839 5.018-.344 7.387.742 2.529 4.126 3.894 9.321 2.63 13.935-1.482 5.404-6.357 9.056-11.866 9.452-4.613.06-9.994-4.496-8.057-9.557.827-2.154 3.742-4.092 6-2.795.932.537 1.198 1.543 1.198 2.625.03 1.505-2.142 1.326-2.142 2.392v.193c2.628.097 3.775-2.951 2.724-4.897-1.357-2.52-4.249-2.825-6.648-1.736a7.134 7.134 0 0 0-1.634 1.02c1.14-5.043-4.603-11.081-8.9-6.243-1.623 1.768-1.02 5.445 1.695 5.744 1.086.119 2.248-.482 2.614-1.545.393-1.29-1.276-3.142-2.333-1.704.828-.918 2.082-.006 2.104 1.028.026 1.251-1.415 1.967-2.501 1.68-3.093-.815-1.815-4.785.36-5.774 4.61-2.113 7.339 3.202 6.512 7.225-3.393 3.421-1.953 9.751 1.45 13.014 4.152 3.988 10.536 3.786 15.456 1.416 5.06-2.444 8.741-7.297 9.725-12.827 2.124-11.949-5.967-23.301-16.776-27.632-2.932-1.175-6.118-1.873-9.391-2.147 13.095-1.526 26.556-.184 39.517-2.76 11.984-2.437 21.665-11.613 21.902-24.279 1.68-9.025 2.9-12.558 4.576-15.612 3.205-5.833 10.927-11.673 17.972-9.578-5.636-.679-11.323 2.952-14.844 7.499 5.286-5.273 12.934-6.85 20.156-4.678-6.053-.777-12.185.175-16.955 3.77 4.046-1.738 8.922-1.63 12.534 1.075-5.18-2.355-11.985-.344-16.29 3.47-3.555 3.147-4.81 8.262-5.482 11.855 3.878-5.043 10.788-7.935 15.594-2.08-6.55-4.283-12.83-.736-16.624 4.867l-.03.087c3.4-4.724 11.446-6.629 20.58-1.497 1.996-4.525-2.588-6.155-5.45-6.201 4.251-2.098.925-6.065-3.695-2.855.01-2.86-3.424-2.066-5.6 1.181-.605-3.849 4.756-7.732 10.16-4.064 2.702 1.833 5.128-.424 4.071-2.972-.919-2.217 3.665 3.017 5.252 2.629 1.44-.353 2.797-3.37.58-6.967 5.505 2.169 6.489 6.05 7.607 10.125 6.48-7.928-4.165-17.227-8.02-18.115-10.04-2.311-20.537 2.794-24.794 16.565 2.04-9.394 7-18.278 14.352-24.455 9.13-7.673 23.007-11.07 34.338-6.55 5.066 2.02 9.245 5.939 10.81 11.25 1.487 5.038.195 10.458-3.76 14.009-4.205 3.775-10.938 4.722-15.002.197-1.773-1.972-2.826-4.843-2.065-7.467.742-2.56 3.21-4.721 5.951-4.713 3.373.009 6.663 4.76 3.183 7.125-1.46.99-3.899.525-4.048-1.542-.116-1.59 2.407-2.722 2.836-.879-.423-2.278-4.463-.085-2.451 2.346 1.918 2.317 5.337.145 5.602-2.36.265-2.523-1.813-4.864-4.208-5.341-2.473-.414-4.957.769-6.486 2.697-3.642 4.592-.53 11.155 4.25 13.462 5.05 2.439 11.08.181 14.612-3.831 3.902-4.437 4.52-10.613 2.3-15.978z" fill="#FFF" mask="url(#f)"/></g></g></svg>
